<?xml version="1.0" standalone="no"?>
<!DOCTYPE svg PUBLIC "-//W3C//DTD SVG 20010904//EN"
 "http://www.w3.org/TR/2001/REC-SVG-20010904/DTD/svg10.dtd">
<svg version="1.0" xmlns="http://www.w3.org/2000/svg"
 width="600.000000pt" height="600.000000pt" viewBox="0 0 600.000000 600.000000"
 preserveAspectRatio="xMidYMid meet">
<metadata>
Created by potrace 1.11, written by Peter Selinger 2001-2013
</metadata>
<g transform="translate(0.000000,600.000000) scale(0.100000,-0.100000)"
fill="#000000" stroke="none">
<path d="M1050 3070 l0 -1410 847 2 847 3 -3 65 c-1 36 -7 66 -12 68 -19 7 19
30 60 37 24 4 75 18 115 32 39 13 96 31 126 39 30 9 67 22 82 30 15 8 29 14
31 14 3 0 33 -65 67 -145 l62 -145 759 0 c418 0 759 1 759 3 0 2 -13 42 -29
89 -36 107 -89 212 -142 284 -28 38 -46 76 -55 118 -8 33 -17 68 -20 77 -3 12
19 31 76 69 130 86 155 129 105 186 -24 27 -25 34 -20 109 2 44 7 130 10 192
l6 112 -61 66 c-78 87 -100 119 -92 132 4 6 33 25 64 43 32 17 69 46 84 63 22
26 25 37 20 72 -4 22 -8 119 -9 216 l-2 177 -40 58 c-21 33 -88 108 -148 168
l-109 109 7 47 c7 52 -9 80 -47 80 -27 0 -78 -32 -102 -65 -41 -54 -172 -132
-328 -194 -66 -27 -148 -106 -169 -164 -14 -40 -30 -44 -35 -9 -3 17 0 20 13
15 14 -6 13 -1 -5 21 -12 16 -22 35 -22 43 0 16 -79 133 -89 133 -8 0 -68 56
-106 99 -30 33 -30 34 -3 17 14 -10 29 -24 32 -32 3 -8 12 -14 21 -14 16 0 20
18 7 36 -14 21 -89 63 -126 69 -38 8 -46 19 -20 29 14 5 14 8 0 28 -9 12 -16
30 -16 39 0 9 -6 17 -12 16 -73 -2 -102 14 -55 32 21 8 21 9 3 17 -10 4 -24 3
-31 -2 -36 -27 -96 -64 -107 -66 -7 -2 -16 -7 -20 -13 -21 -28 -5 21 19 58 14
23 32 60 39 82 6 22 16 39 22 38 14 -3 37 26 27 35 -4 4 -10 1 -12 -5 -3 -7
-11 -13 -19 -13 -17 0 -17 0 2 39 16 33 14 48 -5 36 -6 -3 -11 -15 -11 -25 0
-10 -4 -21 -10 -25 -5 -3 -7 -11 -4 -18 2 -7 -8 -24 -23 -37 -15 -14 -21 -17
-14 -7 17 21 7 35 -12 18 -18 -14 -31 1 -41 44 -11 51 -27 83 -43 90 -24 8
-27 -1 -9 -27 17 -23 22 -58 9 -58 -5 0 -19 19 -32 42 -13 24 -26 38 -28 31
-2 -6 8 -31 23 -54 l27 -43 -27 18 c-15 10 -31 15 -34 11 -4 -4 0 -10 8 -15
41 -24 50 -37 53 -83 2 -26 0 -50 -5 -53 -4 -3 -8 -13 -8 -23 0 -12 -13 -24
-32 -32 -18 -7 -41 -24 -51 -36 -10 -13 -23 -23 -29 -23 -6 0 -17 -8 -24 -17
-11 -15 -16 -16 -33 -5 -27 16 -31 15 -32 -5 0 -10 -9 2 -20 25 -10 24 -28 56
-38 71 -11 15 -22 42 -26 61 -3 19 -8 44 -10 55 -2 11 -4 28 -4 38 -1 10 -5
16 -10 12 -5 -3 -8 -28 -5 -56 3 -35 0 -54 -10 -64 -19 -19 -30 -19 -23 -1 3
8 0 20 -8 26 -32 27 -71 131 -67 181 0 11 -10 19 -30 23 -17 3 -385 6 -819 6
l-789 0 0 -1410z m2179 1198 c-8 -14 -14 -18 -17 -10 -4 13 17 46 25 38 3 -2
-1 -15 -8 -28z m-584 -89 c28 -43 59 -89 71 -102 11 -12 31 -42 45 -67 13 -25
28 -48 32 -51 5 -3 -8 -21 -28 -40 -21 -20 -40 -51 -46 -74 -6 -22 -14 -47
-17 -55 -12 -34 -13 -90 -1 -90 6 0 9 7 6 15 -4 8 -2 17 3 20 6 4 15 26 21 51
20 77 32 64 25 -27 -10 -125 -8 -197 7 -262 11 -52 15 -57 26 -43 13 15 17 13
42 -16 16 -18 28 -39 29 -47 0 -8 7 -19 17 -26 11 -8 14 -18 9 -31 -7 -18 -9
-17 -29 8 -12 15 -30 38 -40 52 -22 31 -33 33 -42 6 -3 -11 -15 -20 -26 -20
-13 0 -19 -7 -19 -23 0 -20 -8 -25 -51 -35 -68 -16 -70 -16 -68 16 1 15 -4 95
-10 177 -14 169 -32 500 -36 648 -4 125 10 128 80 16z m165 -4 c0 -7 7 -18 15
-25 17 -14 20 -30 6 -30 -5 0 -16 16 -25 35 -9 19 -21 37 -26 40 -6 3 -10 11
-10 17 0 6 9 3 20 -7 11 -10 20 -24 20 -30z m284 -251 c9 -3 12 -13 9 -22 -4
-13 -2 -12 10 3 16 20 16 20 17 -1 0 -12 7 -25 16 -28 13 -5 13 -9 -5 -33 -20
-25 -21 -27 -4 -46 15 -16 15 -18 2 -11 -32 18 -79 63 -79 76 0 7 -7 22 -15
32 -8 11 -15 23 -15 28 0 9 41 11 64 2z m-87 -21 c-4 11 -3 16 4 12 6 -4 8
-13 6 -20 -3 -7 19 -39 48 -71 30 -32 51 -62 49 -66 -3 -4 3 -8 12 -8 32 0 4
-14 -34 -16 -35 -3 -133 -23 -140 -29 -2 -2 4 -15 13 -29 9 -14 21 -40 25 -58
4 -18 11 -41 15 -50 5 -12 1 -17 -17 -20 -26 -3 -33 -42 -8 -44 8 -1 21 -2 28
-3 28 -2 1 -17 -27 -15 -17 1 -34 -4 -39 -11 -6 -11 -10 -11 -24 -1 -15 11
-16 18 -6 52 6 21 10 45 9 53 -1 7 2 10 7 7 5 -3 12 4 15 16 4 15 0 26 -14 36
-11 8 -18 20 -15 29 5 11 1 13 -17 7 -12 -3 -28 -11 -34 -16 -10 -8 -13 -4
-13 16 0 14 5 26 11 26 6 0 8 15 4 43 -7 43 8 121 24 131 5 3 6 -14 3 -39 -4
-42 8 -75 28 -75 4 0 10 30 12 66 3 50 9 70 23 80 16 12 21 11 38 -4 19 -16
20 -16 14 1z m-193 -118 c-4 -8 -8 -15 -10 -15 -2 0 -4 7 -4 15 0 8 4 15 10
15 5 0 7 -7 4 -15z m106 5 c0 -5 -2 -10 -4 -10 -3 0 -8 5 -11 10 -3 6 -1 10 4
10 6 0 11 -4 11 -10z m-107 -53 c3 -8 2 -20 -3 -26 -5 -9 -7 -4 -7 13 0 29 2
32 10 13z m377 -12 c0 -8 -2 -15 -4 -15 -2 0 -6 7 -10 15 -3 8 -1 15 4 15 6 0
10 -7 10 -15z m65 -47 c8 -50 -17 -144 -37 -140 -12 2 -21 -9 -29 -38 -7 -22
-18 -40 -26 -40 -8 0 -13 -5 -11 -12 5 -13 47 -16 65 -5 7 4 5 -5 -4 -24 -11
-23 -18 -28 -27 -19 -8 8 -7 13 4 20 13 8 12 10 -4 10 -16 0 -18 -6 -14 -45 7
-54 -7 -51 -16 4 -4 25 -17 51 -37 71 -43 42 -49 30 -9 -20 22 -28 27 -40 17
-40 -9 0 -22 7 -31 15 -17 18 -38 19 -53 4 -8 -8 -13 -8 -17 0 -4 6 -2 11 5
11 7 0 9 3 6 6 -4 4 -13 2 -20 -5 -11 -9 -17 -8 -26 3 -15 17 2 31 26 22 18
-7 43 10 43 30 0 7 -8 20 -17 30 -10 10 -17 33 -18 61 0 35 1 40 9 24 25 -56
150 1 178 80 13 39 36 37 43 -3z m195 3 c-5 -11 -15 -23 -20 -26 -14 -9 -12
19 2 33 19 19 30 14 18 -7z m-337 2 c-7 -2 -21 -2 -30 0 -10 3 -4 5 12 5 17 0
24 -2 18 -5z m405 -54 c-3 -8 -7 -3 -11 10 -4 17 -3 21 5 13 5 -5 8 -16 6 -23z
m-22 -4 c12 -24 12 -24 -11 -7 -13 9 -21 20 -18 25 8 13 18 7 29 -18z m-382
-1 c18 -7 12 -24 -10 -24 -8 0 -14 7 -14 15 0 17 2 18 24 9z m660 -16 c3 -13
6 -45 6 -73 -1 -66 -16 -39 -22 38 -5 57 4 77 16 35z m-324 -28 c0 -13 -1 -13
-10 0 -5 8 -10 22 -10 30 0 13 1 13 10 0 5 -8 10 -22 10 -30z m-27 6 c3 -8 2
-27 -3 -43 -4 -15 -9 -23 -10 -18 -8 54 -8 75 -1 75 5 0 11 -6 14 -14z m62 4
c3 -5 -1 -10 -10 -10 -9 0 -13 5 -10 10 3 6 8 10 10 10 2 0 7 -4 10 -10z m-31
-88 c-16 -33 -44 -44 -44 -18 0 14 49 60 57 53 2 -2 -4 -18 -13 -35z m-536
-52 c18 -16 30 -35 27 -40 -4 -6 -3 -19 1 -28 10 -26 12 -52 2 -58 -4 -3 -8 6
-8 19 0 33 -48 117 -67 117 -13 0 -13 -3 1 -25 23 -35 39 -78 26 -70 -6 3 -10
12 -10 18 0 7 -11 25 -24 41 -17 23 -20 33 -12 43 17 19 29 16 64 -17z m88
-145 c-1 -51 -6 -89 -13 -96 -10 -10 -12 3 -12 57 1 80 7 124 19 124 4 0 7
-38 6 -85z m51 69 c-3 -3 -12 -4 -19 -1 -8 3 -5 6 6 6 11 1 17 -2 13 -5z
m-297 -24 c0 -5 -4 -10 -10 -10 -5 0 -10 5 -10 10 0 6 5 10 10 10 6 0 10 -4
10 -10z m376 -102 c-12 -48 -12 -49 -24 -23 -17 36 -15 71 5 102 l17 26 8 -28
c4 -16 1 -49 -6 -77z m-228 33 c-5 -24 -33 -19 -36 6 -3 17 1 20 18 16 12 -3
20 -12 18 -22z m-350 -13 c7 -7 12 -19 12 -27 -1 -12 -5 -10 -19 7 -11 12 -23
22 -27 22 -4 0 -3 -5 4 -12 7 -7 12 -16 12 -20 0 -15 -15 -7 -33 17 -18 25
-18 25 11 25 15 0 33 -5 40 -12z m408 -83 c18 -13 17 -14 -16 -22 -19 -4 -39
-6 -44 -5 -4 2 -14 -5 -22 -15 -9 -12 -13 -13 -14 -5 0 17 45 62 63 62 7 0 22
-7 33 -15z m-309 -37 c-21 -56 -29 -130 -18 -171 11 -45 6 -103 -10 -113 -5
-3 -9 -17 -9 -31 0 -26 -1 -26 -53 -1 -25 12 -27 16 -21 58 3 25 15 78 25 119
10 41 19 89 19 107 0 33 9 40 54 43 11 1 16 -4 13 -11z m1073 -20 c0 -40 -12
-46 -86 -44 l-71 1 8 30 c5 16 9 31 9 32 0 2 32 3 70 3 66 0 70 -1 70 -22z
m60 -4 c9 -10 6 -12 -17 -8 l-28 5 23 -24 c29 -31 29 -43 -1 -13 -29 29 -33
66 -7 59 11 -3 24 -11 30 -19z m-837 -52 c-2 -10 0 -29 6 -43 11 -30 45 -40
97 -29 l34 8 0 -44 c0 -48 5 -45 -88 -48 -23 -1 -39 -9 -55 -30 -21 -25 -26
-27 -46 -17 -17 9 -30 10 -53 2 -42 -15 -88 -14 -88 2 0 6 13 37 28 67 20 40
44 67 90 102 68 52 83 58 75 30z m802 8 c3 -5 -1 -10 -9 -10 -9 0 -16 5 -16
10 0 6 4 10 9 10 6 0 13 -4 16 -10z m-147 -26 c14 -4 21 -12 18 -20 -3 -8 -1
-14 3 -14 5 0 11 5 13 11 5 14 68 -16 68 -32 0 -8 -27 -67 -35 -77 -2 -2 -27
9 -56 23 -42 22 -57 25 -71 16 -24 -15 -78 -3 -79 18 0 10 -2 11 -6 4 -6 -16
-49 -17 -59 -2 -11 19 20 41 49 33 15 -3 27 -10 27 -16 0 -5 4 -7 9 -4 5 3 28
6 53 7 l43 2 -27 28 c-16 15 -36 30 -46 33 -9 2 3 3 28 1 25 -2 55 -7 68 -11z
m-88 -24 c0 -5 -7 -10 -16 -10 -8 0 -12 5 -9 10 3 6 10 10 16 10 5 0 9 -4 9
-10z m-125 -100 c3 -6 -1 -17 -10 -26 -15 -15 -19 -14 -51 17 -30 29 -32 34
-17 40 18 7 67 -13 78 -31z m107 -34 c-2 -12 1 -16 10 -10 7 4 10 4 6 -1 -4
-4 -2 -17 4 -29 10 -19 8 -18 -17 4 -28 25 -28 25 -16 2 7 -13 10 -26 7 -29
-6 -6 -36 58 -36 77 0 6 10 10 23 8 15 -2 21 -9 19 -22z m-362 -16 c12 -16 23
-38 25 -47 2 -10 15 -44 30 -76 15 -32 25 -61 22 -64 -9 -8 -27 7 -27 23 0 22
-47 107 -54 96 -3 -5 6 -30 19 -57 29 -56 31 -72 10 -72 -8 0 -12 4 -9 9 15
24 -87 181 -112 171 -8 -3 -11 -10 -8 -15 4 -6 10 -5 15 3 6 10 9 10 9 2 0
-18 -17 -24 -28 -10 -7 8 -7 18 -2 27 6 8 10 12 10 8 0 -4 15 1 33 12 41 26
42 25 67 -10z m-1670 9 c0 -5 5 -7 10 -4 6 3 10 -1 10 -10 0 -9 -3 -14 -7 -12
-5 2 -16 7 -26 10 -10 4 -15 11 -12 17 8 13 25 13 25 -1z m1970 -19 c9 -17 8
-19 -7 -13 -16 6 -16 5 -4 -10 23 -28 6 -29 -20 -1 -20 21 -21 27 -9 34 22 14
28 12 40 -10z m-111 -19 c26 -36 26 -37 -1 -44 -12 -4 -20 -9 -16 -12 3 -3 17
-1 31 4 19 8 27 7 31 -5 3 -9 -1 -14 -13 -14 -10 0 -21 -7 -25 -15 -3 -8 -10
-15 -16 -15 -6 0 -8 5 -5 10 4 6 -5 10 -21 10 -22 0 -24 3 -15 14 10 12 9 13
-7 9 -13 -3 -25 3 -36 18 -21 31 -20 42 7 55 39 20 64 16 86 -15z m-1686 -21
c4 -16 0 -20 -21 -20 -15 0 -34 5 -42 10 -13 9 -13 11 0 20 25 17 57 12 63
-10z m1330 0 c24 -19 77 -137 77 -172 0 -14 -27 -28 -57 -28 -6 0 -15 10 -18
23 -4 12 -25 57 -47 101 -32 62 -37 80 -26 87 21 14 44 10 71 -11z m497 -11
c0 -6 -4 -7 -10 -4 -5 3 -10 11 -10 16 0 6 5 7 10 4 6 -3 10 -11 10 -16z
m-1562 -3 c17 -10 -6 -27 -65 -46 -38 -12 -41 -15 -37 -40 4 -19 -5 -49 -31
-101 -21 -41 -41 -75 -46 -77 -5 -2 -2 -13 6 -25 10 -15 11 -27 5 -37 -9 -13
-11 -13 -20 0 -5 8 -10 21 -10 28 0 7 -8 12 -18 10 -24 -4 -27 1 -18 30 4 12
14 22 23 22 10 0 13 5 8 18 -4 9 -10 47 -12 83 l-5 66 41 16 c23 10 50 17 61
17 10 0 21 3 23 8 3 4 -17 7 -44 7 -27 0 -49 -3 -49 -7 0 -5 -11 -8 -23 -8
-28 0 -52 -24 -61 -62 -3 -16 -12 -28 -20 -28 -7 0 -21 -25 -32 -56 -18 -53
-37 -75 -51 -60 -11 10 27 112 63 170 26 41 42 56 58 56 12 0 30 6 39 13 20
14 194 17 215 3z m1192 -35 c-1 -13 -3 -13 -15 3 -19 26 -19 42 0 26 8 -7 15
-20 15 -29z m-1150 -19 c0 -10 -7 -27 -15 -38 -13 -17 -14 -17 -15 -1 0 9 -7
17 -15 17 -20 0 -19 17 3 29 26 16 42 13 42 -7z m1440 1 c0 -11 -73 -40 -88
-35 -6 2 -12 11 -11 20 0 11 2 12 6 5 6 -17 33 -16 57 2 22 16 36 19 36 8z
m-1299 -29 c6 -8 9 -24 5 -37 -6 -26 -27 -29 -64 -8 -12 6 -27 9 -32 6 -6 -3
-10 1 -10 10 0 13 -4 14 -20 5 -22 -12 -25 -7 -10 20 8 15 21 18 65 18 33 0
59 -6 66 -14z m188 -53 c0 -14 -3 -20 -6 -13 -4 10 -8 10 -19 1 -17 -14 -25
-7 -42 35 -12 27 -12 28 13 24 14 -3 25 -1 25 6 0 6 7 2 15 -8 8 -11 15 -31
14 -45z m-59 -45 c0 -3 -4 -8 -10 -11 -5 -3 -10 -1 -10 4 0 6 5 11 10 11 6 0
10 -2 10 -4z m-301 -65 c-12 -41 -29 -46 -29 -9 0 21 29 62 37 54 3 -2 -1 -22
-8 -45z m166 -2 c16 -17 16 -18 -6 -23 -13 -3 -36 -7 -51 -11 -22 -4 -28 -2
-28 12 0 25 29 51 50 46 10 -3 26 -13 35 -24z m1435 -139 c0 -49 -4 -80 -10
-80 -22 0 -89 40 -108 64 -11 14 -22 23 -24 20 -3 -2 -3 8 0 23 5 23 7 24 10
8 7 -33 22 -42 22 -13 0 35 17 44 103 57 4 0 7 -35 7 -79z m84 -76 c4 -9 4
-19 2 -21 -8 -8 -26 8 -26 23 0 19 16 18 24 -2z m-18 -31 c19 -25 17 -33 -7
-33 -18 0 -19 -2 -9 -15 7 -9 8 -15 2 -15 -5 0 -17 12 -27 26 l-17 27 27 -5
c19 -4 23 -2 16 5 -12 12 -15 27 -5 27 4 0 13 -8 20 -17z m-118 -55 c-4 -27
-28 -36 -28 -10 0 20 8 32 22 32 5 0 8 -10 6 -22z m62 3 c0 -11 6 -22 13 -24
7 -3 5 -6 -5 -6 -10 -1 -22 8 -28 18 -13 26 -13 31 5 31 8 0 15 -9 15 -19z
m-30 -22 c0 -11 -4 -17 -10 -14 -5 3 -10 15 -10 26 0 11 5 17 10 14 6 -3 10
-15 10 -26z"/>
<path d="M3099 3853 c-13 -16 -12 -17 4 -4 16 13 21 21 13 21 -2 0 -10 -8 -17
-17z"/>
<path d="M3610 3130 c0 -5 5 -10 11 -10 5 0 7 5 4 10 -3 6 -8 10 -11 10 -2 0
-4 -4 -4 -10z"/>
<path d="M3607 2993 c-3 -5 6 -9 20 -10 19 -1 22 1 12 8 -17 11 -26 11 -32 2z"/>
<path d="M3650 2960 c0 -5 5 -10 11 -10 5 0 7 5 4 10 -3 6 -8 10 -11 10 -2 0
-4 -4 -4 -10z"/>
<path d="M3265 2840 c-3 -5 1 -10 9 -10 9 0 16 5 16 10 0 6 -4 10 -9 10 -6 0
-13 -4 -16 -10z"/>
<path d="M2960 2774 c-11 -12 -10 -18 3 -31 8 -9 23 -13 31 -10 13 5 14 11 4
32 -13 29 -21 31 -38 9z"/>
<path d="M1752 2738 c-11 -15 -21 -78 -12 -78 3 0 16 20 28 45 16 34 18 45 8
45 -7 0 -18 -6 -24 -12z"/>
<path d="M3870 4427 c0 -13 -3 -26 -6 -30 -8 -8 -34 3 -34 14 0 4 7 6 15 3 8
-4 15 -1 15 5 0 6 -11 11 -25 11 -18 0 -25 -5 -25 -20 0 -11 7 -20 15 -20 8 0
15 -5 15 -11 0 -6 -9 -8 -20 -4 -11 4 -20 2 -20 -4 0 -6 18 -10 40 -9 29 1 40
6 40 17 1 14 2 13 11 -1 14 -25 33 -24 20 1 -8 14 -7 22 5 32 14 11 16 10 14
-6 -1 -11 -2 -26 -1 -32 2 -19 41 -16 48 4 6 15 7 14 14 -3 7 -20 8 -20 24 31
9 29 28 16 22 -15 -7 -32 8 -42 17 -12 3 10 4 6 3 -8 -2 -20 3 -26 25 -28 28
-3 28 -4 43 71 2 13 -4 17 -26 17 -16 0 -29 -5 -29 -12 0 -9 -3 -9 -12 0 -18
18 -58 15 -58 -5 0 -16 -1 -16 -12 0 -10 13 -24 16 -55 14 -31 -2 -43 0 -43
10 0 7 -4 13 -10 13 -5 0 -10 -10 -10 -23z m100 -17 c0 -5 -7 -10 -16 -10 -8
0 -12 5 -9 10 3 6 10 10 16 10 5 0 9 -4 9 -10z m126 -27 c-5 -12 -10 -13 -18
-5 -8 8 -8 15 3 28 15 18 25 4 15 -23z m-131 -3 c-3 -5 -10 -10 -16 -10 -5 0
-9 5 -9 10 0 6 7 10 16 10 8 0 12 -4 9 -10z"/>
<path d="M4187 4415 c-25 -32 -26 -35 -8 -35 11 0 21 -6 24 -12 2 -7 8 -10 12
-6 11 10 18 88 8 88 -4 0 -21 -16 -36 -35z m23 -15 c0 -5 -5 -10 -11 -10 -5 0
-7 5 -4 10 3 6 8 10 11 10 2 0 4 -4 4 -10z"/>
<path d="M4250 4435 c-7 -9 -10 -19 -6 -23 4 -4 12 1 17 11 12 20 29 23 29 4
0 -8 -11 -20 -24 -27 -42 -22 -41 -40 2 -39 32 2 33 3 8 6 l-29 5 29 17 c28
17 29 17 34 -3 13 -46 70 -25 70 26 0 33 -23 47 -51 30 -11 -7 -20 -8 -24 -2
-9 15 -41 12 -55 -5z m113 -7 c6 -18 -10 -58 -23 -58 -17 0 -23 27 -10 49 12
24 26 27 33 9z"/>
<path d="M4398 4438 c-5 -15 22 -48 40 -48 7 0 11 -4 7 -10 -3 -5 -12 -7 -20
-3 -8 3 -15 0 -15 -6 0 -17 47 -13 54 5 4 11 -1 18 -14 21 -11 3 -20 10 -20
15 0 5 9 6 20 3 12 -4 20 -2 20 5 0 8 -11 11 -30 8 -23 -3 -30 -1 -26 9 3 7 1
13 -3 13 -5 0 -11 -5 -13 -12z"/>
<path d="M4672 4428 c-6 -13 -11 -17 -11 -10 -1 6 -9 12 -19 12 -10 0 -24 -6
-31 -12 -11 -10 -13 -10 -7 0 4 6 3 12 -2 12 -5 0 -14 -10 -20 -22 l-11 -23 0
23 c-1 12 -6 22 -11 22 -6 0 -15 -10 -20 -22 l-9 -23 0 23 c-1 12 -6 22 -12
22 -8 0 -9 -11 -5 -32 8 -40 14 -46 27 -28 8 11 12 12 16 3 7 -20 21 -15 29 9
l7 23 8 -22 c7 -20 14 -21 108 -21 94 1 100 2 104 22 4 20 4 20 6 -1 0 -13 7
-23 15 -23 9 0 12 8 8 26 -2 14 0 29 6 33 8 4 8 11 1 21 -8 11 -12 12 -16 3
-2 -7 -11 -13 -18 -13 -7 0 -15 -9 -18 -20 -3 -13 -10 -18 -21 -14 -9 3 -16
10 -16 15 0 4 7 6 15 3 8 -4 15 -1 15 5 0 6 -11 11 -25 11 -18 0 -25 -5 -25
-20 0 -11 7 -20 16 -20 8 0 13 -4 9 -10 -10 -17 -35 1 -35 26 0 15 -6 24 -15
24 -8 0 -15 5 -15 10 0 18 -17 10 -28 -12z m-27 -18 c3 -5 -1 -10 -10 -10 -9
0 -13 5 -10 10 3 6 8 10 10 10 2 0 7 -4 10 -10z m56 -33 c-8 -8 -11 -5 -11 9
0 27 14 41 18 19 2 -9 -1 -22 -7 -28z m-56 3 c-3 -5 -10 -10 -16 -10 -5 0 -9
5 -9 10 0 6 7 10 16 10 8 0 12 -4 9 -10z"/>
<path d="M4860 4415 c-19 -23 -8 -50 20 -50 21 0 26 5 28 33 3 26 0 32 -16 32
-11 0 -25 -7 -32 -15z m35 -5 c3 -5 -1 -10 -10 -10 -9 0 -13 5 -10 10 3 6 8
10 10 10 2 0 7 -4 10 -10z m-5 -30 c0 -5 -4 -10 -10 -10 -5 0 -10 5 -10 10 0
6 5 10 10 10 6 0 10 -4 10 -10z"/>
</g>
</svg>
